# xmcd
#
# Track frame offsets: 
#        150
#        26817
#        43089
#        71799
#        105571
#        133986
#        164183
#        190069
#        225125
#        253140
#        276374
#
# Disc length: 4192 seconds
#
# Revision: 0
# Processed by: cddbd v1.5.2PL0 Copyright (c) Steve Scherf et al.
# Submitted via: ExactAudioCopy v1.0b3
#
DISCID=a5105e0b
DTITLE=Various Artist - Dance Factory - CD 1
DYEAR=1900
DGENRE=
TTITLE0=Afrika Bambaataa Pres. Khayan - You Ask For The Moon (Xtd)
TTITLE1=The First Trance Opera In The World - Your Only Motions (Singl
TTITLE1=e Mix)
TTITLE2=Revil O. - Free (Xtd Original Mix)
TTITLE3=Floorfilla - Anthem #1 (Take 02)
TTITLE4=Ramirez - Vaya Con Dios, Amigo! (Club Mix)
TTITLE5=Atropin Project - Plusier (Destination Earth Mix)
TTITLE6=Ace Project - Forever In Trance (Xtd Mix)
TTITLE7=Cyriac - The Calm Before The Storm (Original Version)
TTITLE8=Miraluna - One Day (Special D. Rmx)
TTITLE9=Killing Hand - Beyond The Sky (DJ Red Star Rmx)
TTITLE10=Witchcraft - Magic Melody (Xtd Vocal Mix)
EXTD=
EXTT0=
EXTT1=
EXTT2=
EXTT3=
EXTT4=
EXTT5=
EXTT6=
EXTT7=
EXTT8=
EXTT9=
EXTT10=
PLAYORDER=
